<svg width="218" height="47" viewBox="0 0 218 47" fill="none" xmlns="http://www.w3.org/2000/svg">
<path d="M135.615 29.4854C136.456 30.0019 137.624 30.4245 138.885 30.4245C140.753 30.4245 141.874 29.4385 141.874 27.936C141.874 26.5744 141.08 25.7762 139.165 25.025C136.83 24.1798 135.429 22.9121 135.429 20.8932C135.429 18.6395 137.25 16.9492 140.052 16.9492C141.5 16.9492 142.574 17.2779 143.181 17.6535L142.668 19.2029C142.201 18.9212 141.267 18.4986 140.006 18.4986C138.044 18.4986 137.297 19.6724 137.297 20.6584C137.297 22.02 138.184 22.6774 140.099 23.4756C142.528 24.4615 143.742 25.6353 143.742 27.7951C143.742 30.0488 142.154 32.0208 138.791 32.0208C137.437 32.0208 135.942 31.5983 135.148 31.0818L135.615 29.4854Z" fill="#E91F27"></path>
<path d="M147.204 26.9041C147.251 29.4864 148.839 30.5194 150.707 30.5194C152.015 30.5194 152.855 30.2846 153.509 30.0029L153.836 31.3645C153.182 31.6462 152.062 32.0219 150.427 32.0219C147.298 32.0219 145.43 29.8621 145.43 26.7163C145.43 23.5235 147.251 21.082 150.24 21.082C153.556 21.082 154.443 24.087 154.443 26.012C154.443 26.4346 154.443 26.7163 154.397 26.9041H147.204ZM152.622 25.5425C152.622 24.3217 152.155 22.4436 150.053 22.4436C148.138 22.4436 147.345 24.1809 147.204 25.5425H152.622Z" fill="#E91F27"></path>
<path d="M164.017 31.4115C163.55 31.6462 162.476 32.0219 161.075 32.0219C157.993 32.0219 155.984 29.8621 155.984 26.6693C155.984 23.4296 158.133 21.082 161.449 21.082C162.523 21.082 163.504 21.3637 164.017 21.6455L163.597 23.101C163.13 22.8662 162.429 22.5845 161.449 22.5845C159.113 22.5845 157.853 24.3687 157.853 26.5285C157.853 28.97 159.394 30.4255 161.402 30.4255C162.429 30.4255 163.13 30.1438 163.69 29.909L164.017 31.4115Z" fill="#E91F27"></path>
<path d="M174.707 28.9246C174.707 30.0045 174.754 30.9435 174.8 31.7887H173.166L173.072 30.0984H173.026C172.558 30.9435 171.484 32.0704 169.663 32.0704C168.075 32.0704 166.16 31.1313 166.16 27.4691V21.3653H167.982V27.0935C167.982 29.0654 168.589 30.4271 170.27 30.4271C171.531 30.4271 172.372 29.535 172.745 28.6898C172.839 28.4081 172.932 28.0795 172.932 27.7038V21.3184H174.754V28.9246H174.707Z" fill="#E91F27"></path>
<path d="M177.793 24.5565C177.793 23.3357 177.746 22.2558 177.699 21.3168H179.334L179.427 23.3827H179.474C179.941 21.9741 181.062 21.082 182.323 21.082C182.51 21.082 182.65 21.082 182.837 21.129V22.9132C182.65 22.8662 182.463 22.8662 182.183 22.8662C180.875 22.8662 179.941 23.8992 179.707 25.3077C179.661 25.5894 179.614 25.8711 179.614 26.1998V31.7871H177.793V24.5565Z" fill="#E91F27"></path>
<path d="M186.761 18.3593C186.761 19.0167 186.341 19.5331 185.594 19.5331C184.94 19.5331 184.473 19.0167 184.473 18.3593C184.473 17.702 184.94 17.1855 185.64 17.1855C186.294 17.1855 186.761 17.702 186.761 18.3593ZM184.706 31.7876V21.3173H186.528V31.7876H184.706Z" fill="#E91F27"></path>
<path d="M191.851 18.3125V21.3174H194.513V22.7729H191.851V28.4072C191.851 29.7219 192.225 30.4261 193.252 30.4261C193.719 30.4261 194.093 30.3792 194.326 30.2853L194.42 31.7408C194.046 31.8816 193.486 32.0225 192.785 32.0225C191.944 32.0225 191.244 31.7408 190.777 31.2243C190.263 30.6609 190.076 29.7218 190.076 28.5011V22.7729H188.488V21.3174H190.076V18.782L191.851 18.3125Z" fill="#E91F27"></path>
<path d="M198.671 18.3593C198.671 19.0167 198.251 19.5331 197.504 19.5331C196.85 19.5331 196.383 19.0167 196.383 18.3593C196.383 17.702 196.85 17.1855 197.55 17.1855C198.204 17.1855 198.671 17.702 198.671 18.3593ZM196.616 31.7876V21.3173H198.438V31.7876H196.616Z" fill="#E91F27"></path>
<path d="M202.544 26.9041C202.591 29.4864 204.179 30.5194 206.047 30.5194C207.355 30.5194 208.195 30.2846 208.849 30.0029L209.176 31.3645C208.522 31.6462 207.401 32.0219 205.767 32.0219C202.638 32.0219 200.77 29.8621 200.77 26.7163C200.77 23.5235 202.591 21.082 205.58 21.082C208.896 21.082 209.783 24.087 209.783 26.012C209.783 26.4346 209.783 26.7163 209.737 26.9041H202.544ZM208.009 25.5425C208.009 24.3217 207.541 22.4436 205.44 22.4436C203.525 22.4436 202.731 24.1809 202.591 25.5425H208.009Z" fill="#E91F27"></path>
<path d="M211.834 29.862C212.394 30.2376 213.375 30.6132 214.309 30.6132C215.664 30.6132 216.271 29.9089 216.271 29.0638C216.271 28.1248 215.71 27.6552 214.356 27.1388C212.535 26.4345 211.647 25.4015 211.647 24.1808C211.647 22.4905 213.002 21.1289 215.197 21.1289C216.224 21.1289 217.111 21.4106 217.672 21.7862L217.205 23.1948C216.831 22.96 216.084 22.5844 215.103 22.5844C214.029 22.5844 213.422 23.2417 213.422 24.0399C213.422 24.8851 214.029 25.3076 215.337 25.8241C217.111 26.4814 217.999 27.4205 217.999 28.9699C217.999 30.848 216.598 32.1157 214.169 32.1157C213.048 32.1157 212.021 31.834 211.32 31.3645L211.834 29.862Z" fill="#E91F27"></path>
<path d="M56.6565 32.1133C55.162 32.1133 53.8076 31.8785 52.4999 31.409C51.1922 30.9395 50.0713 30.2352 49.1373 29.2961C48.2032 28.404 47.456 27.2772 46.8955 25.9625C46.3351 24.6479 46.1016 23.1924 46.1016 21.596C46.1016 19.9996 46.3818 18.5441 46.8955 17.2295C47.456 15.8679 48.2032 14.741 49.184 13.755C50.1647 12.769 51.3323 12.0647 52.6867 11.5013C54.0411 10.9848 55.4889 10.7031 57.0301 10.7031C58.151 10.7031 59.1784 10.844 60.1125 11.1257C61.0466 11.4074 61.7938 11.6891 62.4477 12.0647L63.335 11.2665H64.596L64.7361 18.685H63.4751C62.7746 16.4313 61.8872 14.741 60.9065 13.7081C59.9257 12.6282 58.7114 12.1117 57.2636 12.1117C55.4889 12.1117 54.1345 12.9099 53.2004 14.5062C52.2664 16.1026 51.7994 18.3094 51.7994 21.1734C51.7994 22.7698 51.9395 24.1784 52.2664 25.3052C52.5933 26.4321 53.0136 27.3711 53.5274 28.0754C54.0878 28.7797 54.7416 29.3431 55.4889 29.6718C56.2361 30.0004 57.0768 30.1882 57.9642 30.1882C59.2719 30.1882 60.4861 29.8126 61.5136 29.1083C62.5411 28.404 63.5218 27.2772 64.3625 25.8217L65.5768 26.5729C65.1565 27.4181 64.6894 28.1693 64.1757 28.8266C63.662 29.4839 63.0548 30.0474 62.3543 30.5169C61.607 31.0334 60.7664 31.4559 59.879 31.7376C58.9916 31.9724 57.9175 32.1133 56.6565 32.1133Z" fill="#221F1F"></path>
<path d="M84.1162 31.5989H75.5228V30.5659C75.7096 30.5659 75.9431 30.519 76.1766 30.472C76.4102 30.4251 76.6437 30.3781 76.7371 30.3312C76.9239 30.2373 77.064 30.0964 77.1574 29.8616C77.2508 29.6738 77.2975 29.3452 77.2975 28.9696V22.2554C77.2975 21.2694 77.1107 20.5182 76.7371 20.0487C76.3635 19.5791 75.8497 19.2974 75.1959 19.2974C74.8223 19.2974 74.4486 19.3444 74.1217 19.4852C73.7948 19.5791 73.4679 19.767 73.1876 20.0017C72.9074 20.1895 72.6739 20.3773 72.5338 20.5651C72.3937 20.7529 72.2536 20.9408 72.1135 21.0816V28.7817C72.1135 29.1574 72.1602 29.4391 72.2536 29.6269C72.347 29.8147 72.4871 30.0025 72.7206 30.1434C72.8607 30.2373 73.0475 30.2842 73.2811 30.3781C73.5146 30.4251 73.7481 30.472 73.9816 30.519V31.5519H65.2948V30.519C65.5283 30.519 65.7618 30.472 65.9954 30.4251C66.2289 30.3781 66.4624 30.3312 66.6025 30.2842C66.8827 30.1903 67.1162 30.0025 67.2096 29.8147C67.303 29.5799 67.3965 29.2982 67.3965 28.9696V13.0059C67.3965 12.6772 67.303 12.3955 67.1629 12.0199C67.0228 11.6912 66.836 11.4095 66.5558 11.2686C66.369 11.1278 66.0888 11.0339 65.7151 10.9869C65.3415 10.893 65.0146 10.8461 64.7344 10.8461V9.81312L71.8333 9.4375L72.0668 9.67226V19.5322H72.1135C72.4871 19.2035 72.814 18.9218 73.0942 18.6401C73.3745 18.3584 73.7481 18.1236 74.1684 17.8419C74.542 17.6072 74.9624 17.4193 75.5228 17.2785C76.0832 17.1376 76.6904 17.0437 77.3442 17.0437C78.8854 17.0437 80.053 17.4663 80.8003 18.3584C81.5942 19.2505 81.9678 20.4243 81.9678 21.8798V28.8757C81.9678 29.2043 82.0145 29.533 82.1079 29.7208C82.2014 29.9555 82.3882 30.0964 82.6684 30.2373C82.8552 30.3312 83.042 30.3781 83.2288 30.4251C83.4623 30.472 83.6959 30.519 83.9761 30.5659L84.1162 31.5989Z" fill="#221F1F"></path>
<path d="M94.6206 28.9671C94.8074 28.4506 94.9942 27.7933 95.0877 27.042C95.1811 26.2908 95.2278 25.3987 95.2278 24.3658C95.2278 23.7084 95.1811 22.9572 95.0877 22.0651C94.9942 21.22 94.8541 20.5157 94.6673 20.0462C94.4338 19.4358 94.1069 18.9663 93.7333 18.6376C93.3129 18.309 92.8459 18.1211 92.1921 18.1211C91.5382 18.1211 90.9778 18.309 90.5575 18.6846C90.1371 19.0602 89.8569 19.5297 89.6234 20.1401C89.4366 20.7035 89.2965 21.3139 89.2031 22.0651C89.1097 22.7694 89.1097 23.5676 89.1097 24.3188C89.1097 25.3518 89.1564 26.2438 89.2031 26.9012C89.2498 27.5585 89.4366 28.2628 89.6701 28.9671C89.9036 29.5774 90.1838 30.047 90.6042 30.3756C91.0245 30.7043 91.5382 30.8921 92.1454 30.8921C92.7058 30.8921 93.2195 30.7512 93.5932 30.4226C94.0602 30.0939 94.3404 29.6244 94.6206 28.9671ZM98.2635 19.0602C98.964 19.7175 99.5245 20.5157 99.8514 21.4078C100.225 22.3468 100.412 23.3328 100.412 24.3658C100.412 25.4457 100.225 26.4317 99.8514 27.3707C99.4778 28.3097 98.964 29.1079 98.2635 29.7653C97.5162 30.4695 96.6289 31.033 95.5547 31.4086C94.5272 31.7842 93.3129 31.972 92.0053 31.972C90.8377 31.972 89.7635 31.7842 88.7827 31.4555C87.802 31.1269 86.9613 30.6104 86.2141 29.9531C85.5135 29.2957 84.9064 28.5445 84.486 27.6055C84.0657 26.6664 83.8789 25.5865 83.8789 24.4597C83.8789 23.2859 84.0657 22.2999 84.4393 21.4078C84.813 20.5157 85.3734 19.7175 86.074 19.0132C86.7745 18.3559 87.6619 17.8394 88.6893 17.4638C89.7168 17.0882 90.8844 16.9004 92.1454 16.9004C93.4063 16.9004 94.6206 17.0882 95.6481 17.4638C96.6756 17.8864 97.5162 18.4029 98.2635 19.0602Z" fill="#221F1F"></path>
<path d="M109.191 31.5989H100.271V30.5659C100.505 30.5659 100.738 30.519 100.972 30.472C101.205 30.4251 101.439 30.3781 101.579 30.3312C101.859 30.2373 102.092 30.0495 102.186 29.8616C102.279 29.6269 102.373 29.3452 102.373 29.0165V13.0998C102.373 12.7241 102.279 12.3955 102.139 12.1138C101.999 11.7851 101.812 11.5503 101.532 11.4095C101.345 11.2686 101.065 11.1747 100.645 11.0339C100.271 10.94 99.9441 10.8461 99.6172 10.8461V9.81312L106.763 9.4375L106.996 9.67226V28.8287C106.996 29.2043 107.043 29.486 107.183 29.6738C107.323 29.9086 107.51 30.0495 107.79 30.1903C107.977 30.2842 108.164 30.3312 108.397 30.4251C108.584 30.472 108.864 30.519 109.145 30.5659L109.191 31.5989Z" fill="#221F1F"></path>
<path d="M118.061 23.8023C117.547 23.9902 116.987 24.178 116.473 24.4127C115.959 24.6475 115.539 24.8822 115.212 25.164C114.839 25.4457 114.605 25.7743 114.372 26.1969C114.185 26.6195 114.091 27.089 114.091 27.6524C114.091 28.4036 114.278 28.9201 114.605 29.2488C114.932 29.5774 115.352 29.7653 115.866 29.7653C116.38 29.7653 116.8 29.6713 117.127 29.4366C117.454 29.2018 117.781 28.9671 118.014 28.6384L118.061 23.8023ZM125.113 31.2677C124.693 31.4555 124.179 31.5964 123.619 31.7842C123.058 31.925 122.451 32.019 121.797 32.019C120.63 32.019 119.789 31.8311 119.229 31.5025C118.668 31.1738 118.295 30.6573 118.108 30H118.061C117.734 30.3287 117.407 30.6104 117.127 30.8452C116.847 31.0799 116.52 31.2677 116.193 31.4086C115.726 31.5964 115.306 31.7842 114.885 31.8781C114.465 31.972 113.905 32.019 113.157 32.019C112.036 32.019 111.102 31.6903 110.355 31.033C109.561 30.3756 109.188 29.4835 109.188 28.4036C109.188 27.7933 109.281 27.2768 109.421 26.8073C109.608 26.3847 109.841 25.9621 110.168 25.6335C110.448 25.3518 110.775 25.07 111.149 24.8822C111.523 24.6944 111.943 24.5066 112.41 24.3188C113.251 23.9901 114.278 23.6615 115.492 23.3328C116.707 23.0042 117.547 22.6755 118.108 22.3938V21.0322C118.108 20.7974 118.108 20.4687 118.061 20.0931C118.014 19.7175 117.921 19.3888 117.828 19.1071C117.687 18.8254 117.501 18.5437 117.22 18.3559C116.94 18.1681 116.567 18.0272 116.1 18.0272C115.679 18.0272 115.352 18.0742 115.025 18.215C114.745 18.309 114.512 18.4498 114.372 18.5907C114.418 18.7785 114.465 19.0602 114.605 19.4828C114.745 19.8584 114.792 20.234 114.792 20.6096C114.792 20.7505 114.745 20.9852 114.652 21.22C114.558 21.4547 114.465 21.6425 114.278 21.7834C114.045 21.9712 113.811 22.1121 113.531 22.206C113.251 22.2999 112.83 22.3468 112.27 22.3468C111.476 22.3468 110.869 22.159 110.448 21.7834C110.028 21.4078 109.841 20.8913 109.841 20.2809C109.841 19.7645 110.028 19.248 110.448 18.8724C110.869 18.4498 111.383 18.0742 111.99 17.7925C112.597 17.5108 113.297 17.276 114.045 17.1352C114.839 16.9943 115.539 16.9004 116.193 16.9004C117.127 16.9004 117.968 16.9473 118.715 17.0882C119.462 17.1821 120.163 17.4169 120.817 17.7455C121.424 18.0742 121.891 18.5437 122.218 19.201C122.591 19.8114 122.731 20.6566 122.731 21.6895C122.731 22.7694 122.685 24.0371 122.638 25.5396C122.591 27.042 122.591 27.9811 122.591 28.4506C122.591 28.8732 122.638 29.2018 122.778 29.4835C122.918 29.7183 123.105 29.9061 123.385 30.047C123.525 30.1409 123.806 30.1878 124.133 30.1878C124.506 30.1878 124.786 30.1878 125.067 30.1878L125.113 31.2677Z" fill="#221F1F"></path>
<path d="M16.1639 22.2066C14.2958 21.4554 12.9881 20.4224 13.2683 17.7931C13.6886 14.2717 19.1529 10.2808 20.9276 8.26184C22.1886 6.85328 22.4688 3.42578 22.4688 3.42578C22.4688 3.42578 24.2902 7.27585 22.1886 10.4686C21.3479 11.7363 16.9111 16.0559 16.0238 18.7321C15.6035 19.7181 15.4166 21.0328 16.1639 22.2066Z" fill="#E91F27"></path>
<path d="M13.0263 18.8747C11.2049 18.0765 9.71042 16.8088 10.0373 14.1795C10.5044 10.6581 16.062 6.76109 17.8368 4.78911C19.0978 3.38055 19.4247 0 19.4247 0C19.4247 0 21.1994 3.85007 19.0043 6.99586C18.1637 8.35746 13.6802 12.5362 12.6994 15.2125C12.3725 16.2454 12.0923 17.5601 13.0263 18.8747Z" fill="#E91F27"></path>
<path d="M25.1233 19.3457C26.9915 20.0969 28.2991 21.1299 28.0189 23.7592C27.5986 27.2806 22.1343 31.2715 20.3596 33.2905C19.0986 34.699 18.8184 38.1265 18.8184 38.1265C18.8184 38.1265 16.997 34.2765 19.0986 31.0837C19.9393 29.816 24.3761 25.4964 25.2634 22.8202C25.6371 21.8342 25.8239 20.5195 25.1233 19.3457Z" fill="#E91F27"></path>
<path d="M28.2556 22.6328C30.077 23.431 31.5715 24.6987 31.2446 27.328C30.7775 30.8494 25.2199 34.7464 23.4452 36.7184C22.1842 38.08 21.8572 41.5075 21.8572 41.5075C21.8572 41.5075 20.0825 37.6575 22.2776 34.5117C23.1649 33.244 27.6484 29.0183 28.5825 26.389C28.9094 25.3091 29.1429 23.9944 28.2556 22.6328Z" fill="#E91F27"></path>
<path d="M22.0406 25.3073C21.2934 27.1854 20.2659 28.5001 17.6505 28.2183C14.1945 27.7958 10.178 22.2554 8.1698 20.5182C6.7687 19.2505 3.35938 18.9688 3.35938 18.9688C3.35938 18.9688 7.18903 17.1377 10.3648 19.2505C11.6258 20.0956 15.9225 24.5561 18.5846 25.4482C19.5654 25.8238 20.9198 26.0116 22.0406 25.3073Z" fill="#1E4382"></path>
<path d="M18.7747 28.4534C17.9807 30.2846 16.7197 31.787 14.1044 31.4584C10.6016 30.9889 6.72525 25.4016 4.76372 23.6174C3.36263 22.3497 0 22.021 0 22.021C0 22.021 3.82966 20.2368 6.95877 22.4436C8.21975 23.3357 12.423 27.8431 15.0384 28.7821C16.1126 29.1108 17.4203 29.3455 18.7747 28.4534Z" fill="#1E4382"></path>
<path d="M19.1953 16.2459C19.9426 14.3678 20.97 13.0532 23.5854 13.3349C27.0881 13.7575 31.0579 19.2509 33.0661 21.035C34.4672 22.3027 37.8766 22.5845 37.8766 22.5845C37.8766 22.5845 34.0469 24.4156 30.8711 22.3027C29.6101 21.4576 25.3134 16.9972 22.6513 16.1051C21.6706 15.7295 20.3629 15.5416 19.1953 16.2459Z" fill="#1E4382"></path>
<path d="M22.5078 13.1011C23.3018 11.27 24.5628 9.76751 27.1781 10.0962C30.6809 10.5657 34.5572 16.153 36.5188 17.9372C37.9198 19.2049 41.2825 19.5335 41.2825 19.5335C41.2825 19.5335 37.4528 21.3177 34.3237 19.111C33.0627 18.2189 28.8594 13.7115 26.2441 12.7724C25.1699 12.4438 23.8622 12.209 22.5078 13.1011Z" fill="#1E4382"></path>
<path d="M124.041 39.911C123.714 39.911 123.34 40.1927 122.92 40.7092C122.546 41.1787 122.266 41.6952 122.079 42.3056H122.173C122.827 42.1647 123.34 41.93 123.807 41.6013C124.228 41.2257 124.461 40.8501 124.461 40.4275C124.461 40.2866 124.415 40.1458 124.368 40.0988C124.274 39.958 124.181 39.911 124.041 39.911ZM122.453 44.794C121.986 44.794 121.612 44.6532 121.332 44.3715C121.052 44.0898 120.912 43.7141 120.912 43.2446C120.912 43.1038 120.912 43.0099 120.959 42.8221C120.959 42.6812 121.005 42.5403 121.052 42.3995C121.239 41.7422 121.659 41.1318 122.36 40.5214C123.06 39.958 123.667 39.6763 124.274 39.6763C124.601 39.6763 124.835 39.7232 124.975 39.8641C125.115 40.0049 125.209 40.1927 125.209 40.4275C125.209 40.897 124.928 41.3665 124.368 41.7422C123.807 42.1178 123.06 42.3995 122.126 42.5403H122.033C121.986 42.6342 121.986 42.7751 121.939 42.869C121.939 43.0099 121.893 43.1038 121.893 43.1977C121.893 43.5263 121.986 43.7611 122.173 43.9489C122.36 44.1367 122.593 44.2306 122.92 44.2306C123.154 44.2306 123.434 44.1837 123.667 44.0428C123.948 43.902 124.228 43.6672 124.555 43.3855L124.695 43.5263C124.274 43.9489 123.901 44.2306 123.527 44.4184C123.2 44.7001 122.827 44.794 122.453 44.794ZM119.744 40.1927L118.904 43.855C118.67 44.8879 118.39 45.6392 118.016 46.2026C117.643 46.7191 117.176 47.0008 116.662 47.0008C116.428 47.0008 116.242 46.9538 116.055 46.813C115.915 46.6721 115.821 46.5313 115.821 46.3435C115.821 46.2026 115.868 46.1087 115.961 46.0148C116.055 45.9209 116.148 45.8739 116.242 45.8739C116.428 45.8739 116.568 45.9209 116.615 46.0617C116.709 46.2026 116.709 46.3435 116.615 46.4843C116.568 46.5782 116.568 46.6252 116.615 46.6721C116.662 46.7191 116.709 46.766 116.802 46.766C117.035 46.766 117.222 46.6252 117.409 46.3435C117.596 46.0617 117.736 45.5922 117.876 44.9818L118.857 40.1927H117.876L117.97 39.8171H118.95C119.184 38.972 119.511 38.3147 119.838 37.8451C120.258 37.2817 120.725 37 121.239 37C121.519 37 121.753 37.047 121.939 37.1878C122.126 37.3287 122.22 37.4695 122.22 37.7043C122.22 37.8451 122.173 37.939 122.079 38.0329C121.986 38.1269 121.893 38.1738 121.753 38.1738C121.566 38.1738 121.472 38.0799 121.379 37.939C121.285 37.7982 121.332 37.6104 121.426 37.4695C121.472 37.3756 121.472 37.3287 121.426 37.2817C121.379 37.2348 121.285 37.2348 121.192 37.2348C120.865 37.2348 120.632 37.4695 120.398 37.939C120.165 38.3616 119.978 39.0189 119.838 39.8171H121.052L120.959 40.1927H119.744ZM116.755 37.2817C116.895 37.2817 117.035 37.3287 117.129 37.4695C117.222 37.5634 117.269 37.7512 117.269 37.8921C117.269 38.0799 117.222 38.2208 117.129 38.3147C117.035 38.4086 116.895 38.5025 116.755 38.5025C116.615 38.5025 116.475 38.4555 116.382 38.3147C116.288 38.1738 116.242 38.0799 116.242 37.8921C116.242 37.7043 116.288 37.5634 116.382 37.4695C116.475 37.3287 116.568 37.2817 116.755 37.2817ZM114.981 43.6672L115.728 40.897C115.821 40.5684 115.821 40.3805 115.728 40.3336C115.634 40.2397 115.401 40.1927 115.027 40.2397L115.074 40.0519L115.961 39.911L116.849 39.7702L116.895 39.8171L115.821 43.855C115.775 43.9959 115.775 44.1367 115.775 44.2306C115.775 44.3245 115.868 44.3245 115.961 44.3245C116.055 44.3245 116.195 44.2776 116.335 44.1367C116.475 43.9959 116.662 43.7611 116.895 43.4324L117.035 43.5733C116.709 44.0428 116.428 44.3715 116.195 44.5593C115.961 44.7471 115.728 44.841 115.494 44.841C115.214 44.841 115.074 44.7471 114.981 44.5593C114.934 44.4654 114.934 44.3715 114.934 44.2306C114.887 43.9959 114.934 43.855 114.981 43.6672ZM111.665 43.6672L113.112 37.986C113.159 37.7512 113.159 37.6104 113.066 37.5634C112.972 37.5165 112.739 37.4695 112.272 37.4695L112.318 37.2817C112.645 37.2348 112.972 37.2348 113.206 37.1878C113.439 37.1409 113.766 37.0939 114.14 37L114.187 37.047L112.459 43.808C112.412 43.9959 112.412 44.0898 112.412 44.1837C112.459 44.2776 112.505 44.3245 112.599 44.3245C112.692 44.3245 112.832 44.2306 112.972 44.0898C113.112 43.9489 113.346 43.6672 113.579 43.2916L113.72 43.4324C113.393 43.902 113.112 44.2776 112.879 44.5123C112.645 44.7471 112.365 44.841 112.132 44.841C111.851 44.841 111.665 44.7471 111.571 44.5593C111.571 44.2776 111.571 43.9959 111.665 43.6672ZM104.519 44.6532L105.547 40.8501C105.64 40.4745 105.64 40.2866 105.547 40.1927C105.453 40.0988 105.22 40.0988 104.799 40.1927L104.846 40.0049L105.687 39.8641L106.527 39.7232L106.574 39.7702L106.014 41.93C106.014 41.9769 106.014 41.9769 106.014 41.9769C106.014 41.9769 106.06 41.9769 106.06 41.93C106.2 41.6483 106.34 41.3665 106.481 41.1318C107.041 40.1927 107.555 39.6763 108.022 39.6763C108.255 39.6763 108.395 39.7702 108.489 39.911C108.582 40.0519 108.629 40.2397 108.536 40.4745C108.489 40.6153 108.442 40.7092 108.349 40.7562C108.255 40.8031 108.162 40.8501 108.022 40.8501C107.928 40.8501 107.835 40.8501 107.788 40.8031C107.742 40.7562 107.695 40.7092 107.648 40.6153C107.601 40.5684 107.601 40.5214 107.555 40.4745C107.508 40.4275 107.508 40.4275 107.461 40.4275C107.228 40.4275 106.901 40.8501 106.434 41.6952C106.2 42.1647 105.967 42.6812 105.733 43.2446C105.687 43.3855 105.593 43.5733 105.547 43.808C105.453 44.0428 105.406 44.2306 105.36 44.4654L105.313 44.7001L104.519 44.6532ZM102.511 39.911C102.184 39.911 101.81 40.1927 101.39 40.7092C101.016 41.1787 100.736 41.6952 100.549 42.3056H100.643C101.297 42.1647 101.81 41.93 102.277 41.6013C102.698 41.2257 102.931 40.8501 102.931 40.4275C102.931 40.2866 102.884 40.1458 102.838 40.0988C102.744 39.958 102.651 39.911 102.511 39.911ZM100.923 44.794C100.456 44.794 100.082 44.6532 99.802 44.3715C99.5218 44.0898 99.3817 43.7141 99.3817 43.2446C99.3817 43.1038 99.3817 43.0099 99.4284 42.8221C99.4751 42.6812 99.4751 42.5403 99.5218 42.3995C99.7086 41.7422 100.129 41.1318 100.829 40.5214C101.53 39.958 102.137 39.6763 102.744 39.6763C103.071 39.6763 103.305 39.7232 103.445 39.8641C103.585 40.0049 103.678 40.1927 103.678 40.4275C103.678 40.897 103.398 41.3665 102.838 41.7422C102.277 42.1178 101.53 42.3995 100.596 42.5403H100.503C100.456 42.6342 100.456 42.7751 100.409 42.869C100.409 43.0099 100.362 43.1038 100.362 43.1977C100.362 43.5263 100.456 43.7611 100.643 43.9489C100.83 44.1367 101.063 44.2306 101.39 44.2306C101.623 44.2306 101.904 44.1837 102.137 44.0428C102.417 43.902 102.698 43.6672 103.025 43.3855L103.165 43.5263C102.744 43.9489 102.371 44.2306 101.997 44.4184C101.67 44.7001 101.297 44.794 100.923 44.794ZM96.3927 43.808L97.3735 40.1927H96.6729C96.6262 40.1927 96.5795 40.1927 96.5328 40.1927C96.5328 40.1927 96.5328 40.1458 96.5328 40.0988C96.5328 40.0519 96.5328 40.0049 96.5795 40.0049C96.6262 40.0049 96.6729 39.958 96.7196 39.911C97.0932 39.7702 97.3735 39.5824 97.607 39.3946C97.8405 39.2067 98.074 38.972 98.3075 38.6433C98.3542 38.5964 98.4009 38.5494 98.4009 38.5494C98.4476 38.5494 98.4476 38.5025 98.4943 38.5025C98.541 38.5025 98.541 38.5025 98.541 38.5494C98.541 38.5964 98.541 38.5964 98.541 38.6433L98.2141 39.8641H99.1015L99.0548 40.2397H98.1207L97.0932 43.9489C97.0465 44.0898 97.0465 44.1367 97.0932 44.2306C97.0932 44.2776 97.1399 44.3245 97.2334 44.3245C97.3268 44.3245 97.4202 44.2306 97.5603 44.0898C97.7004 43.9489 97.8872 43.7141 98.1207 43.3855L98.2608 43.5263C97.9339 43.9959 97.6537 44.3245 97.4202 44.5123C97.1866 44.7001 96.9531 44.794 96.6729 44.794C96.3927 44.794 96.2526 44.7001 96.2059 44.5593C96.2526 44.4184 96.2993 44.1367 96.3927 43.808ZM93.2636 43.808L94.2444 40.1927H93.5438C93.4971 40.1927 93.4504 40.1927 93.4037 40.1927C93.4037 40.1927 93.4037 40.1458 93.4037 40.0988C93.4037 40.0519 93.4037 40.0049 93.4504 40.0049C93.4971 40.0049 93.5438 39.958 93.5905 39.911C93.9641 39.7702 94.2444 39.5824 94.4779 39.3946C94.7114 39.2067 94.9449 38.972 95.1784 38.6433C95.2251 38.5964 95.2718 38.5494 95.2718 38.5494C95.3185 38.5494 95.3185 38.5025 95.3652 38.5025C95.4119 38.5025 95.4119 38.5025 95.4119 38.5494C95.4119 38.5964 95.4119 38.5964 95.4119 38.6433L95.085 39.8641H95.9724L95.9257 40.2397H94.9916L93.9641 43.9489C93.9174 44.0898 93.9174 44.1367 93.9641 44.2306C93.9641 44.2776 94.0108 44.3245 94.1042 44.3245C94.1976 44.3245 94.2911 44.2306 94.4312 44.0898C94.5713 43.9489 94.7581 43.7141 94.9916 43.3855L95.1317 43.5263C94.8048 43.9959 94.5246 44.3245 94.2911 44.5123C94.0575 44.7001 93.824 44.794 93.5438 44.794C93.3103 44.794 93.1235 44.7001 93.0768 44.5593C93.1702 44.4184 93.1702 44.1367 93.2636 43.808ZM91.3021 39.911C90.9751 39.911 90.6015 40.1927 90.1812 40.7092C89.8076 41.1787 89.5273 41.6952 89.3405 42.3056H89.4339C90.0878 42.1647 90.6015 41.93 91.0685 41.6013C91.4889 41.2257 91.7224 40.8501 91.7224 40.4275C91.7224 40.2866 91.6757 40.1458 91.629 40.0988C91.5356 39.958 91.3955 39.911 91.3021 39.911ZM89.7141 44.794C89.2471 44.794 88.8735 44.6532 88.5933 44.3715C88.3131 44.0898 88.1729 43.7141 88.1729 43.2446C88.1729 43.1038 88.1729 43.0099 88.2196 42.8221C88.2664 42.6812 88.2664 42.5403 88.3131 42.3995C88.4999 41.7422 88.9202 41.1318 89.6207 40.5214C90.3213 39.958 90.9284 39.6763 91.5356 39.6763C91.8625 39.6763 92.096 39.7232 92.2361 39.8641C92.3762 40.0049 92.4696 40.1927 92.4696 40.4275C92.4696 40.897 92.1894 41.3665 91.629 41.7422C91.0685 42.1178 90.3213 42.3995 89.3872 42.5403H89.2938C89.2471 42.6342 89.2471 42.7751 89.2004 42.869C89.2004 43.0099 89.1537 43.1038 89.1537 43.1977C89.1537 43.5263 89.2471 43.7611 89.4339 43.9489C89.6207 44.1367 89.8543 44.2306 90.1812 44.2306C90.4147 44.2306 90.6949 44.1837 90.9284 44.0428C91.2086 43.902 91.4889 43.6672 91.8158 43.3855L91.9559 43.5263C91.5356 43.9489 91.1619 44.2306 90.7883 44.4184C90.4614 44.7001 90.0878 44.794 89.7141 44.794ZM83.9697 44.5123C84.4367 44.5123 84.9037 44.2776 85.4175 43.7611C85.9312 43.2916 86.2581 42.7282 86.4449 42.0708C86.4916 41.883 86.5383 41.7422 86.5383 41.5544C86.585 41.3665 86.585 41.2257 86.585 41.1318C86.585 40.8031 86.5383 40.5684 86.3515 40.4275C86.2114 40.2397 86.0246 40.1927 85.7444 40.1927C85.3241 40.1927 84.9037 40.4745 84.5301 41.0379C84.2032 41.5074 83.923 42.1647 83.6427 42.916L83.5026 43.3855C83.4559 43.6202 83.4092 43.808 83.3625 43.9489C83.3625 44.0898 83.3625 44.1837 83.4092 44.2306L83.4559 44.2776C83.5493 44.4654 83.7361 44.5123 83.9697 44.5123ZM84.1565 37.986C84.2032 37.7512 84.2032 37.6104 84.1098 37.5634C84.0164 37.5165 83.7829 37.4695 83.3158 37.4695L83.3625 37.2817C83.6894 37.2348 84.0164 37.2348 84.2499 37.1878C84.5301 37.1409 84.8103 37.0939 85.1839 37L85.2306 37.047L84.0631 41.2726L84.3433 40.8501C84.9504 40.0988 85.5109 39.7232 86.118 39.7232C86.5383 39.7232 86.8653 39.8641 87.0988 40.0988C87.3323 40.3336 87.4724 40.6623 87.4724 41.0848C87.4724 41.1787 87.4724 41.3196 87.4257 41.4604C87.4257 41.6013 87.379 41.7422 87.3323 41.883C87.1455 42.6342 86.6784 43.2916 85.9779 43.902C85.2774 44.5123 84.5768 44.794 83.8763 44.794C83.5493 44.794 83.2691 44.7471 82.9889 44.6532C82.7087 44.5593 82.5219 44.4184 82.3818 44.2306L84.1565 37.986ZM77.2444 39.958C76.8708 39.958 76.4505 40.2397 75.9834 40.7562C75.5631 41.2726 75.2362 41.883 75.0494 42.6342C75.0027 42.7751 74.956 42.916 74.956 43.1038C74.956 43.2446 74.9093 43.3855 74.9093 43.4794C74.9093 43.7611 74.956 43.9489 75.0961 44.0898C75.2362 44.2306 75.3763 44.3245 75.6098 44.3245C76.0301 44.3245 76.4505 44.0428 76.8241 43.5263C77.2444 43.0099 77.5713 42.3056 77.7581 41.4604C77.8983 40.9909 77.8983 40.6153 77.8048 40.3806C77.7114 40.0519 77.5246 39.958 77.2444 39.958ZM75.0961 44.794C74.7691 44.794 74.4889 44.7001 74.2554 44.4654C74.0686 44.2306 73.9285 43.9489 73.9285 43.5263C73.9285 43.4324 73.9285 43.2916 73.9752 43.1507C73.9752 43.0099 74.0219 42.869 74.0686 42.7282C74.3021 41.93 74.7224 41.2257 75.3296 40.6153C75.9834 40.0049 76.5906 39.6763 77.151 39.6763C77.5246 39.6763 77.8048 39.8171 77.9917 40.1458C78.0384 40.1927 78.0384 40.2866 78.0851 40.3336L78.2252 39.7702L79.0191 39.6763L77.8983 43.7611C77.8515 43.902 77.8515 44.0428 77.8515 44.1367C77.8515 44.2306 77.945 44.2776 78.0384 44.2776C78.1318 44.2776 78.2719 44.2306 78.412 44.0898C78.5521 43.9489 78.7389 43.7611 78.9257 43.4794L79.0658 43.6202C78.7856 44.0428 78.5054 44.3715 78.2719 44.5593C78.0384 44.7471 77.8048 44.841 77.618 44.841C77.3845 44.841 77.1977 44.7471 77.1043 44.5593C77.0109 44.3715 77.0109 44.0898 77.151 43.7141L77.2911 43.1507C77.1043 43.4324 76.9642 43.7141 76.7307 43.9489C76.2636 44.4654 75.7032 44.794 75.0961 44.794ZM67.1098 44.6532L68.1373 40.8501C68.2307 40.4745 68.2307 40.2397 68.1373 40.1927C68.0439 40.0988 67.8104 40.0988 67.39 40.1927L67.4367 40.0049L68.2774 39.8641L69.1181 39.7232L69.1648 39.7702L68.6043 41.93C68.6043 41.9769 68.6043 41.9769 68.6043 41.9769C68.6043 41.9769 68.651 41.9769 68.651 41.93C68.7911 41.6483 68.9312 41.3665 69.0714 41.1318C69.6318 40.1927 70.1455 39.6763 70.6126 39.6763C70.8461 39.6763 70.9862 39.7702 71.0796 39.911C71.173 40.0519 71.2197 40.2397 71.1263 40.4745C71.0796 40.6153 71.0329 40.7092 70.9395 40.7562C70.8461 40.8031 70.7527 40.8501 70.6126 40.8501C70.5192 40.8501 70.4257 40.8501 70.379 40.8031C70.3323 40.7562 70.2856 40.7092 70.2389 40.6153C70.1922 40.5684 70.1922 40.5214 70.1455 40.4745C70.0988 40.4275 70.0988 40.4275 70.0521 40.4275C69.8186 40.4275 69.4917 40.8501 69.0247 41.6952C68.7911 42.1647 68.5576 42.6812 68.3241 43.2446C68.2774 43.3855 68.184 43.5733 68.1373 43.808C68.0439 44.0428 67.9972 44.2306 67.9505 44.4654L67.9038 44.7001L67.1098 44.6532ZM65.0549 39.911C64.728 39.911 64.3543 40.1927 63.934 40.7092C63.5604 41.1787 63.2802 41.6952 63.0934 42.3056H63.1868C63.8406 42.1647 64.3543 41.93 64.8214 41.6013C65.2417 41.2257 65.4752 40.8501 65.4752 40.4275C65.4752 40.2866 65.4285 40.1458 65.3818 40.0988C65.2884 39.958 65.195 39.911 65.0549 39.911ZM63.467 44.794C63 44.794 62.6263 44.6532 62.3461 44.3715C62.0659 44.0898 61.9258 43.7141 61.9258 43.2446C61.9258 43.1038 61.9258 43.0099 61.9725 42.8221C62.0192 42.6812 62.0192 42.5403 62.0659 42.3995C62.2527 41.7422 62.673 41.1318 63.3736 40.5214C64.0741 39.958 64.6813 39.6763 65.2884 39.6763C65.6153 39.6763 65.8488 39.7232 65.9889 39.8641C66.1291 40.0049 66.2225 40.1927 66.2225 40.4275C66.2225 40.897 65.9422 41.3665 65.3818 41.7422C64.8214 42.1178 64.0741 42.3995 63.1401 42.5403H63.0466C62.9999 42.6342 62.9999 42.7751 62.9532 42.869C62.9532 43.0099 62.9065 43.1038 62.9065 43.1977C62.9065 43.5263 62.9999 43.7611 63.1868 43.9489C63.3736 44.1367 63.6071 44.2306 63.934 44.2306C64.1675 44.2306 64.4477 44.1837 64.6813 44.0428C64.9615 43.902 65.2417 43.6672 65.5686 43.3855L65.7087 43.5263C65.3351 43.9489 64.9148 44.2306 64.5411 44.4184C64.2609 44.7001 63.8873 44.794 63.467 44.794ZM58.9368 43.808L59.9175 40.1927H59.217C59.1703 40.1927 59.1236 40.1927 59.0769 40.1927C59.0769 40.1927 59.0769 40.1458 59.0769 40.0988C59.0769 40.0519 59.0769 40.0049 59.1236 40.0049C59.1703 40.0049 59.217 39.958 59.2637 39.911C59.6373 39.7702 59.9175 39.5824 60.1511 39.3946C60.3846 39.2067 60.6181 38.972 60.8516 38.6433C60.8983 38.5964 60.945 38.5494 60.945 38.5494C60.9917 38.5494 60.9917 38.5025 61.0384 38.5025C61.0851 38.5025 61.0851 38.5025 61.0851 38.5494C61.0851 38.5964 61.0851 38.5964 61.0851 38.6433L60.7582 39.8641H61.6456L61.5989 40.2397H60.6648L59.6373 43.9489C59.5906 44.0898 59.5906 44.1367 59.6373 44.2306C59.6373 44.2776 59.684 44.3245 59.7774 44.3245C59.8708 44.3245 59.9642 44.2306 60.1043 44.0898C60.2445 43.9489 60.4313 43.7141 60.6648 43.3855L60.8049 43.5263C60.478 43.9959 60.1978 44.3245 59.9642 44.5123C59.7307 44.7001 59.4972 44.794 59.217 44.794C58.9835 44.794 58.7967 44.7001 58.75 44.5593C58.8434 44.4184 58.8434 44.1367 58.9368 43.808ZM53.0055 44.6532L54.0329 40.8501C54.1263 40.5214 54.1263 40.3336 54.0329 40.2397C53.9395 40.1458 53.706 40.1458 53.3324 40.1458L53.3791 39.958L54.2665 39.8171L55.1538 39.6763L55.2005 39.7232L54.5 42.0708H54.5467C54.7802 41.6952 55.0137 41.3665 55.2472 40.9909C55.9478 40.0988 56.5082 39.6293 57.0219 39.6293C57.3956 39.6293 57.6291 39.7702 57.7225 40.0049C57.8159 40.2397 57.8159 40.6623 57.6291 41.2257L56.9752 43.7141C56.9285 43.902 56.9285 43.9959 56.9285 44.0898C56.9285 44.1837 57.0219 44.2306 57.1154 44.2306C57.2088 44.2306 57.3489 44.1837 57.489 44.0428C57.6291 43.902 57.8159 43.6672 58.0494 43.3385L58.1895 43.4794C57.8626 43.9489 57.5824 44.2776 57.3489 44.4654C57.1154 44.6532 56.8818 44.7471 56.6483 44.7471C56.3681 44.7471 56.228 44.6532 56.1346 44.4654C56.0412 44.2776 56.0412 43.9959 56.1346 43.6202L56.8351 41.0379C56.8818 40.8031 56.9285 40.6153 56.8818 40.4745C56.8351 40.3336 56.7417 40.2866 56.6016 40.2866C56.1813 40.2866 55.7143 40.7092 55.1538 41.5074C54.8269 42.0239 54.5467 42.5403 54.2665 43.1507C54.2198 43.2916 54.1731 43.4324 54.0796 43.6202C54.0329 43.808 53.9862 43.9489 53.9395 44.1367L53.7994 44.7001L53.0055 44.6532ZM46 44.6532L46.0467 44.4654C46.3269 44.4184 46.5137 44.3715 46.6538 44.2776C46.7473 44.1837 46.8874 43.9489 46.9341 43.6202L48.2885 38.5964C48.4286 38.1269 48.4286 37.7982 48.3352 37.6573C48.2418 37.5165 47.9615 37.4226 47.4945 37.4226L47.5412 37.2348H53.1456L52.9588 38.0799L52.772 38.925H52.5384C52.6318 38.3616 52.5384 37.986 52.3049 37.8451C52.0714 37.7043 51.511 37.6104 50.5769 37.6104H50.0632C49.8764 37.6104 49.783 37.6573 49.6896 37.7043C49.5961 37.7512 49.5494 37.8921 49.5027 38.0329L48.8022 40.5214H48.989C49.8297 40.5214 50.3434 40.4745 50.5769 40.3806C50.8104 40.2866 50.9972 39.958 51.2308 39.4885H51.4643L51.0906 40.8031L50.717 42.1178H50.4835C50.5769 41.5543 50.5769 41.2257 50.3901 41.1318C50.25 40.9909 49.783 40.944 48.989 40.944H48.7088L48.0549 43.3855C47.9615 43.7611 47.9615 43.9959 48.0549 44.0898C48.1483 44.1837 48.3819 44.2776 48.7555 44.2776C49.7363 44.2776 50.4368 44.1837 50.8571 43.9959C51.2775 43.808 51.7445 43.3855 52.2115 42.7282L52.3983 42.8221L52.0247 43.7611L51.6511 44.7001L46 44.6532Z" fill="#221F1F"></path>
<path d="M130.158 33.1456C129.831 33.1456 129.598 32.9109 129.598 32.5822V17.5576C129.598 17.2289 129.831 16.9941 130.158 16.9941C130.485 16.9941 130.719 17.2289 130.719 17.5576V32.6292C130.719 32.9109 130.438 33.1456 130.158 33.1456Z" fill="#6E7172"></path>
</svg>